<?xml version="1.0" encoding="utf-8"?>
<!-- Generator: Adobe Illustrator 25.0.0, SVG Export Plug-In . SVG Version: 6.00 Build 0)  -->
<svg version="1.1" id="Layer_1" xmlns="http://www.w3.org/2000/svg" xmlns:xlink="http://www.w3.org/1999/xlink" x="0px" y="0px"
	 viewBox="0 0 2562 822" style="enable-background:new 0 0 2562 822;" xml:space="preserve">
<style type="text/css">
	.st0{enable-background:new    ;}
	.st1{fill:#4285F4;}
	.st2{fill:#DB4437;}
	.st3{fill:#F4B400;}
	.st4{fill:#0F9D58;}
	.st5{fill:black;}
	@media (prefers-color-scheme: dark) {
		.st5{ fill: white; }
	}
</style>
<g class="st0">
	<path class="st1" d="M342,482.7l40.9,51.3l-46.7,35.7l-29.4-36.9c-26.9,24.6-59.1,36.9-96.8,36.9c-28,0-53.7-6.3-76.9-19
		s-41.6-30-55-52.1s-20.2-46.7-20.2-74c0-23.4,6.1-45.9,18.4-67.4s29-39.4,50.1-53.6c-18.2-23.9-27.4-46-27.4-66.3
		c0-18,4.5-34.7,13.5-49.8c9-15.2,21.4-27.1,37.2-35.7c15.7-8.6,33.2-13,52.4-13c24.6,0,45.1,6.4,61.6,19.3
		c16.5,12.9,28.2,29.5,35.1,49.8l-52.4,27.6c-9.6-26.1-24.2-39.2-43.8-39.2c-11.9,0-21.8,3.7-29.7,10.9
		c-7.9,7.3-11.8,17.1-11.8,29.4c0,11.9,4.6,23.6,13.8,35.1L305.7,437l35.7-58.2l47.2,29.4L342,482.7z M271.8,487.9L161.2,347.3
		c-13.4,8.5-24,19.5-31.7,33.1S118,408.3,118,423.3c0,16.9,4.2,32.2,12.7,45.8c8.4,13.6,19.9,24.2,34.3,31.7
		c14.4,7.5,30,11.2,46.9,11.2C235.7,512,255.6,504,271.8,487.9z"/>
</g>
<g class="st0">
	<path class="st2" d="M467.9,537.7c-18.6-21.3-27.9-51-27.9-89v-182h63.4V440c0,23.8,5.7,41.7,17,53.6
		c11.3,11.9,26.2,17.9,44.6,17.9c15,0,28.2-3.9,39.7-11.8s20.4-18.3,26.5-31.4s9.2-27.1,9.2-42V266.7h63.4v293.8h-59.9v-38h-3.5
		c-8.1,13.8-20.5,25.2-37.4,34s-34.8,13.2-53.6,13.2C513.7,569.7,486.5,559,467.9,537.7z"/>
</g>
<g class="st0">
	<path class="st3" d="M831.1,549.5c-21.5-13.4-38.5-32-51-55.6s-18.7-50.4-18.7-80.4s6.2-56.7,18.7-80.4
		c12.5-23.6,29.5-42.1,51-55.6c21.5-13.4,45.5-20.2,72-20.2c20.7,0,39.4,4.6,55.9,13.8c16.5,9.2,29,20.5,37.4,34h2.9l-2.9-41.5V148
		h63.4v412.4h-60.5v-38h-2.9c-8.5,13.1-20.9,24.2-37.4,33.4s-35.1,13.8-55.9,13.8C876.6,569.7,852.6,562.9,831.1,549.5z
		 M955.2,499.4c13.2-8.1,23.9-19.6,32-34.6s12.1-32.1,12.1-51.3c0-19.2-4-36.2-12.1-51s-18.7-26.2-32-34.3
		c-13.2-8.1-27.6-12.1-42.9-12.1c-15.4,0-29.8,4-43.2,12.1s-24.2,19.5-32.3,34.3s-12.1,31.8-12.1,51s4,36.3,12.1,51.3
		s18.8,26.5,32.3,34.6c13.4,8.1,27.8,12.1,43.2,12.1S942,507.4,955.2,499.4z"/>
</g>
<g>
	<path class="st1" d="M1133.5,266.7h60.5v38.6h2.9c8.8-14.2,21.3-25.7,37.4-34.6c16.1-8.8,33.4-13.2,51.8-13.2
		c21.1,0,39.5,4.9,55.3,14.7c15.7,9.8,27.1,22.8,34,38.9c10-16.1,23.3-29.1,40-38.9s36.4-14.7,59-14.7c33.8,0,59.4,10.3,76.9,30.8
		s26.2,48.5,26.2,83.8v188.4h-63.4V383c0-44.5-19-66.8-57-66.8c-20.4,0-37.1,8.3-50.1,24.8c-13.1,16.5-19.6,36.9-19.6,61.1v158.4
		H1324V383c0-44.5-19.6-66.8-58.8-66.8c-20,0-36.4,8.3-49.3,24.8s-19.3,36.9-19.3,61.1v158.4h-63.4V266.7H1133.5z"/>
</g>
<g class="st0">
	<path class="st3" d="M1649,293.2h264.4v54.7H1649V293.2z M1649,405.5h264.4v54.7H1649V405.5z"/>
</g>
<g class="st0">
	<path class="st4" d="M2073,252.3l-64.5,46.7l-32.3-49l115.8-83.5h44.4v394H2073V252.3z"/>
</g>
<g class="st0">
	<path class="st2" d="M2397.9,482.1h-184.3v-49.5l179.1-266.1h68.5v256.9h50.1v58.8h-50.1v78.3h-63.4L2397.9,482.1L2397.9,482.1z
		 M2397.9,423.3v-163h-3.5l-110,163H2397.9z"/>
</g>
<g class="st5">
	<path d="M536.3,716c-2.2-0.8-4-1.9-5.4-3.2c-3.2-3.2-4.7-7.4-4.7-12.9v-29h-9.8v-10.7h9.8v-15.8h12.1v15.8h13.6v10.7h-13.6v26.4
		c0,3,0.6,5.1,1.8,6.4c1.1,1.5,3,2.2,5.7,2.2c1.2,0,2.3-0.2,3.3-0.5c1-0.3,2-0.9,3.1-1.6v11.8c-2.4,1.1-5.4,1.6-8.8,1.6
		C540.9,717.2,538.5,716.8,536.3,716z"/>
	<path d="M561.4,637.6h12.1V659l-0.6,8.6h0.6c1.6-2.6,4-4.8,7.2-6.5c3.2-1.7,6.6-2.6,10.3-2.6c6.8,0,12,2,15.6,6
		c3.6,4,5.4,9.4,5.4,16.3v35.5h-12.1v-33.9c0-4.3-1.1-7.4-3.4-9.6c-2.2-2.1-5.2-3.2-8.7-3.2c-2.7,0-5.2,0.8-7.3,2.3
		c-2.2,1.5-3.9,3.6-5.1,6.1c-1.2,2.5-1.9,5.2-1.9,8.1v30.1h-12.1V637.6z"/>
	<path d="M634.8,714.3c-4.4-2.6-7.8-6.1-10.2-10.6c-2.5-4.5-3.7-9.6-3.7-15.2c0-5.4,1.2-10.3,3.6-14.9c2.4-4.6,5.7-8.2,10-10.9
		c4.3-2.7,9.1-4.1,14.5-4.1c5.6,0,10.5,1.2,14.7,3.7c4.1,2.5,7.3,5.9,9.5,10.2c2.2,4.3,3.2,9.2,3.2,14.6c0,1-0.1,2.3-0.3,3.8h-43
		c0.4,5.2,2.3,9.2,5.6,12c3.3,2.8,7.1,4.2,11.4,4.2c3.4,0,6.4-0.8,9-2.4c2.5-1.6,4.6-3.7,6.1-6.4l10.2,4.8
		c-2.6,4.6-6.1,8.2-10.3,10.9c-4.3,2.6-9.4,4-15.3,4C644.1,718.1,639.2,716.8,634.8,714.3z M664,681.7c-0.1-2-0.8-3.9-1.9-5.9
		c-1.1-1.9-2.8-3.6-5-4.9c-2.2-1.3-5-2-8.2-2c-3.9,0-7.2,1.2-9.8,3.5c-2.7,2.3-4.5,5.4-5.6,9.3H664z"/>
	<path d="M717.7,713.9c-4.1-2.8-7-6.4-8.7-10.8l10.8-4.7c1.3,2.9,3.2,5.2,5.6,6.7c2.4,1.5,5.1,2.3,8.2,2.3c3,0,5.5-0.5,7.6-1.6
		c2.1-1.1,3.1-2.7,3.1-4.8c0-2.1-0.9-3.7-2.6-4.8c-1.8-1.2-4.5-2.2-8.1-3.1l-6.7-1.6c-4.5-1.1-8.2-3-11.1-5.8
		c-2.9-2.8-4.4-6.3-4.4-10.6c0-3.3,1-6.2,2.9-8.7c1.9-2.5,4.6-4.4,7.9-5.8c3.3-1.4,6.9-2,10.8-2c5.2,0,9.8,1,13.8,3.1
		c4,2.1,6.8,5.1,8.6,9.1l-10.6,4.6c-2.1-4.3-6-6.5-11.7-6.5c-2.7,0-5,0.5-6.8,1.6c-1.8,1.1-2.8,2.5-2.8,4.3c0,1.7,0.7,3.1,2.1,4.1
		c1.4,1.1,3.4,2,6.2,2.7l8.2,2.1c5.5,1.4,9.7,3.5,12.5,6.3c2.8,2.8,4.2,6.3,4.2,10.4c0,3.5-1,6.6-3,9.3c-2,2.7-4.8,4.7-8.3,6.2
		c-3.5,1.5-7.4,2.2-11.7,2.2C727.1,718.1,721.8,716.7,717.7,713.9z"/>
	<path d="M775.7,714.3c-4.4-2.6-7.8-6.1-10.2-10.6c-2.5-4.5-3.7-9.6-3.7-15.2c0-5.4,1.2-10.3,3.6-14.9c2.4-4.6,5.7-8.2,10-10.9
		c4.3-2.7,9.1-4.1,14.5-4.1c5.6,0,10.5,1.2,14.7,3.7c4.1,2.5,7.3,5.9,9.5,10.2c2.2,4.3,3.2,9.2,3.2,14.6c0,1-0.1,2.3-0.3,3.8h-43
		c0.4,5.2,2.3,9.2,5.6,12c3.3,2.8,7.1,4.2,11.4,4.2c3.4,0,6.4-0.8,9-2.4c2.5-1.6,4.6-3.7,6.1-6.4l10.2,4.8
		c-2.6,4.6-6.1,8.2-10.3,10.9c-4.3,2.6-9.4,4-15.3,4C785,718.1,780.1,716.8,775.7,714.3z M804.9,681.7c-0.1-2-0.8-3.9-1.9-5.9
		c-1.1-1.9-2.8-3.6-5-4.9c-2.2-1.3-5-2-8.2-2c-3.9,0-7.2,1.2-9.8,3.5c-2.7,2.3-4.5,5.4-5.6,9.3H804.9z"/>
	<path d="M832.6,715.8c-3.2-1.6-5.6-3.8-7.4-6.7c-1.8-2.9-2.6-6.2-2.6-9.8c0-5.8,2.2-10.4,6.5-13.8c4.4-3.4,9.9-5.1,16.6-5.1
		c3.3,0,6.3,0.3,8.9,0.9c2.6,0.6,4.7,1.3,6.3,2v-2.9c0-3.4-1.3-6.3-3.9-8.4c-2.6-2.2-5.9-3.2-9.9-3.2c-2.9,0-5.6,0.6-8.1,1.9
		c-2.5,1.2-4.6,3-6.1,5.2l-8.5-6.5c2.5-3.4,5.7-6.1,9.7-8c4-1.9,8.4-2.9,13.2-2.9c8.1,0,14.4,2,18.8,6c4.4,4,6.6,9.6,6.6,16.9v35
		h-11.9v-6.7h-0.5c-1.6,2.4-3.9,4.4-6.8,6c-2.9,1.6-6.3,2.4-10.1,2.4C839.3,718.1,835.7,717.3,832.6,715.8z M853.4,706
		c2.3-1.4,4.2-3.3,5.5-5.6c1.3-2.3,2-4.9,2-7.6c-1.7-1-3.6-1.7-5.9-2.3c-2.2-0.6-4.6-0.9-7-0.9c-4.5,0-7.9,0.9-10,2.7
		c-2.1,1.8-3.2,4.1-3.2,7c0,2.6,1,4.7,3,6.3c2,1.6,4.5,2.5,7.7,2.5C848.4,708.1,851,707.4,853.4,706z"/>
	<path d="M884.5,660.3h11.5v8.2h0.6c1.2-2.9,3.4-5.2,6.5-7.1s6.3-2.8,9.8-2.8c2.7,0,5,0.4,6.8,1.1v12.5c-3.2-1.2-6.1-1.8-8.7-1.8
		c-2.8,0-5.3,0.7-7.4,2.2c-2.2,1.5-3.9,3.4-5.1,5.9c-1.2,2.5-1.9,5.2-1.9,8.1v29.7h-12.1V660.3z"/>
	<path d="M937.1,714.3c-4.4-2.6-7.9-6.1-10.3-10.6c-2.5-4.5-3.7-9.6-3.7-15.3s1.2-10.8,3.7-15.3c2.5-4.5,5.9-8,10.3-10.6
		c4.4-2.6,9.4-3.9,15-3.9c6.2,0,11.4,1.4,15.7,4.2c4.3,2.8,7.4,6.6,9.2,11.3l-11.1,4.6c-2.5-5.9-7.2-8.9-14.2-8.9
		c-3,0-5.8,0.8-8.3,2.3c-2.5,1.5-4.5,3.7-6.1,6.5c-1.5,2.8-2.3,6.1-2.3,9.7c0,3.7,0.8,6.9,2.3,9.8c1.5,2.9,3.5,5.1,6.1,6.6
		c2.5,1.5,5.3,2.3,8.3,2.3c3.5,0,6.5-0.8,9.1-2.4c2.5-1.6,4.5-3.8,5.8-6.8l10.9,4.7c-2.1,4.8-5.4,8.5-9.7,11.3
		c-4.3,2.8-9.6,4.2-15.7,4.2C946.5,718.1,941.5,716.8,937.1,714.3z"/>
	<path d="M985.4,637.6h12.1V659l-0.6,8.6h0.6c1.6-2.6,4-4.8,7.2-6.5c3.2-1.7,6.6-2.6,10.3-2.6c6.8,0,12,2,15.6,6
		c3.6,4,5.4,9.4,5.4,16.3v35.5h-12.1v-33.9c0-4.3-1.1-7.4-3.4-9.6c-2.2-2.1-5.2-3.2-8.7-3.2c-2.7,0-5.2,0.8-7.3,2.3
		c-2.2,1.5-3.9,3.6-5.1,6.1c-1.2,2.5-1.9,5.2-1.9,8.1v30.1h-12.1V637.6z"/>
	<path d="M1086.3,714.3c-4.4-2.6-7.8-6.1-10.2-10.6c-2.5-4.5-3.7-9.6-3.7-15.2c0-5.4,1.2-10.3,3.6-14.9c2.4-4.6,5.7-8.2,10-10.9
		c4.3-2.7,9.1-4.1,14.5-4.1c5.6,0,10.5,1.2,14.7,3.7c4.1,2.5,7.3,5.9,9.5,10.2c2.2,4.3,3.2,9.2,3.2,14.6c0,1-0.1,2.3-0.3,3.8h-43
		c0.4,5.2,2.3,9.2,5.6,12c3.3,2.8,7.1,4.2,11.4,4.2c3.4,0,6.4-0.8,9-2.4c2.5-1.6,4.6-3.7,6.1-6.4l10.2,4.8
		c-2.6,4.6-6.1,8.2-10.3,10.9c-4.3,2.6-9.4,4-15.3,4C1095.6,718.1,1090.7,716.8,1086.3,714.3z M1115.6,681.7c-0.1-2-0.8-3.9-1.9-5.9
		c-1.1-1.9-2.8-3.6-5-4.9c-2.2-1.3-5-2-8.2-2c-3.9,0-7.2,1.2-9.8,3.5c-2.7,2.3-4.5,5.4-5.6,9.3H1115.6z"/>
	<path d="M1137.2,660.3h11.5v7.4h0.6c1.6-2.6,4-4.8,7.2-6.5c3.2-1.7,6.6-2.6,10.2-2.6c6.8,0,12,2,15.6,6c3.6,4,5.3,9.4,5.3,16.3
		v35.5h-12.1v-33.9c0-4.4-1.1-7.6-3.2-9.7c-2.2-2.1-5.2-3.1-9-3.1c-2.7,0-5.1,0.8-7.3,2.3c-2.1,1.5-3.8,3.5-5,6
		c-1.2,2.5-1.8,5.2-1.8,8v30.4h-12.1V660.3z"/>
	<path d="M1207.8,737.1c-4.5-3.2-7.5-6.9-9.1-11.2l11.3-4.7c1.2,2.9,3.1,5.3,5.7,7.1c2.6,1.8,5.7,2.7,9.2,2.7c5.1,0,9.1-1.5,12-4.6
		c2.9-3,4.3-7.3,4.3-12.8v-5.2h-0.7c-1.8,2.6-4.3,4.7-7.3,6.2c-3,1.5-6.5,2.3-10.5,2.3c-4.7,0-9.1-1.2-13.1-3.6
		c-4-2.4-7.2-5.8-9.6-10.3c-2.4-4.4-3.6-9.5-3.6-15.2c0-5.7,1.2-10.8,3.6-15.2c2.4-4.4,5.6-7.9,9.6-10.3c4-2.5,8.4-3.7,13.1-3.7
		c3.9,0,7.4,0.8,10.5,2.3c3.1,1.5,5.5,3.6,7.4,6.3h0.7v-6.8h11.5v53c0,6.1-1.2,11.3-3.5,15.6c-2.3,4.3-5.6,7.5-9.8,9.7
		c-4.2,2.2-9.1,3.3-14.6,3.3C1218,741.9,1212.3,740.3,1207.8,737.1z M1233.1,703.8c2.5-1.4,4.5-3.5,5.9-6.3c1.5-2.8,2.2-6,2.2-9.7
		c0-5.7-1.6-10.2-4.7-13.4c-3.1-3.2-7-4.8-11.6-4.8c-3,0-5.8,0.7-8.2,2.1c-2.5,1.4-4.5,3.5-5.9,6.2c-1.5,2.7-2.2,6-2.2,9.8
		c0,3.8,0.7,7.1,2.2,9.8c1.5,2.7,3.4,4.8,5.9,6.2c2.5,1.4,5.2,2.1,8.2,2.1C1227.9,705.9,1230.6,705.2,1233.1,703.8z"/>
	<path d="M1266,649.8c-1.6-1.6-2.4-3.5-2.4-5.8c0-2.3,0.8-4.2,2.4-5.8c1.6-1.6,3.5-2.4,5.8-2.4c2.3,0,4.2,0.8,5.8,2.4
		c1.6,1.6,2.4,3.5,2.4,5.8c0,2.3-0.8,4.2-2.4,5.8c-1.6,1.6-3.5,2.4-5.8,2.4C1269.5,652.1,1267.6,651.3,1266,649.8z M1265.7,660.3
		h12.1v56.1h-12.1V660.3z"/>
	<path d="M1290.7,660.3h11.5v7.4h0.5c1.6-2.6,4-4.8,7.2-6.5c3.2-1.7,6.6-2.6,10.2-2.6c6.8,0,12,2,15.6,6c3.6,4,5.3,9.4,5.3,16.3
		v35.5h-12.1v-33.9c0-4.4-1.1-7.6-3.2-9.7c-2.2-2.1-5.2-3.1-9-3.1c-2.7,0-5.1,0.8-7.3,2.3c-2.1,1.5-3.8,3.5-5,6
		c-1.2,2.5-1.8,5.2-1.8,8v30.4h-12.1V660.3z"/>
	<path d="M1363.7,714.3c-4.4-2.6-7.8-6.1-10.2-10.6c-2.5-4.5-3.7-9.6-3.7-15.2c0-5.4,1.2-10.3,3.6-14.9c2.4-4.6,5.7-8.2,10-10.9
		c4.3-2.7,9.1-4.1,14.5-4.1c5.6,0,10.5,1.2,14.7,3.7c4.1,2.5,7.3,5.9,9.5,10.2c2.2,4.3,3.2,9.2,3.2,14.6c0,1-0.1,2.3-0.3,3.8h-43
		c0.4,5.2,2.3,9.2,5.6,12c3.3,2.8,7.1,4.2,11.4,4.2c3.4,0,6.4-0.8,9-2.4c2.5-1.6,4.6-3.7,6.1-6.4l10.2,4.8
		c-2.6,4.6-6.1,8.2-10.3,10.9c-4.3,2.6-9.4,4-15.3,4C1373,718.1,1368,716.8,1363.7,714.3z M1392.9,681.7c-0.1-2-0.8-3.9-1.9-5.9
		c-1.1-1.9-2.8-3.6-5-4.9c-2.2-1.3-5-2-8.2-2c-3.9,0-7.2,1.2-9.8,3.5c-2.7,2.3-4.5,5.4-5.6,9.3H1392.9z"/>
	<path d="M1443.9,637.6h12.3V675h0.7l31.9-37.4h15.3v0.7l-28.8,33.2l31.4,44.2v0.7h-15.1l-24.6-35.3l-10.7,12.3v23h-12.3V637.6z"/>
	<path d="M1520,714.2c-4.5-2.6-8-6.2-10.4-10.7c-2.5-4.5-3.7-9.6-3.7-15.2c0-5.6,1.2-10.6,3.7-15.2c2.5-4.5,6-8.1,10.4-10.7
		c4.5-2.6,9.5-3.9,15.2-3.9c5.6,0,10.7,1.3,15.2,4c4.5,2.6,8,6.2,10.5,10.8c2.5,4.5,3.7,9.6,3.7,15.1c0,5.6-1.2,10.6-3.7,15.2
		c-2.5,4.5-6,8.1-10.5,10.7c-4.5,2.6-9.5,3.9-15.2,3.9C1529.5,718.1,1524.5,716.8,1520,714.2z M1543.8,704.8
		c2.6-1.5,4.7-3.7,6.3-6.5c1.6-2.8,2.4-6.1,2.4-10c0-3.8-0.8-7.1-2.4-9.9c-1.6-2.8-3.7-4.9-6.3-6.4c-2.6-1.5-5.5-2.3-8.6-2.3
		s-5.9,0.8-8.6,2.3c-2.6,1.5-4.7,3.6-6.3,6.4c-1.6,2.8-2.4,6.1-2.4,9.9c0,3.8,0.8,7.1,2.4,10c1.6,2.8,3.7,5,6.3,6.5
		c2.6,1.5,5.5,2.3,8.6,2.3S1541.1,706.3,1543.8,704.8z"/>
	<path d="M1573.8,660.3h11.5v7.4h0.5c1.6-2.6,4-4.8,7.2-6.5c3.2-1.7,6.6-2.6,10.2-2.6c6.8,0,12,2,15.6,6c3.6,4,5.3,9.4,5.3,16.3
		v35.5h-12.1v-33.9c0-4.4-1.1-7.6-3.2-9.7c-2.2-2.1-5.2-3.1-9-3.1c-2.7,0-5.1,0.8-7.3,2.3c-2.1,1.5-3.8,3.5-5,6
		c-1.2,2.5-1.8,5.2-1.8,8v30.4h-12.1V660.3z"/>
	<path d="M1642.9,715.8c-3.2-1.6-5.6-3.8-7.4-6.7c-1.8-2.9-2.6-6.2-2.6-9.8c0-5.8,2.2-10.4,6.5-13.8c4.4-3.4,9.9-5.1,16.6-5.1
		c3.3,0,6.3,0.3,8.9,0.9c2.6,0.6,4.7,1.3,6.3,2v-2.9c0-3.4-1.3-6.3-3.8-8.4c-2.6-2.2-5.9-3.2-9.9-3.2c-2.9,0-5.6,0.6-8.1,1.9
		c-2.5,1.2-4.6,3-6.1,5.2l-8.5-6.5c2.5-3.4,5.7-6.1,9.7-8c4-1.9,8.4-2.9,13.2-2.9c8.1,0,14.4,2,18.8,6c4.4,4,6.6,9.6,6.6,16.9v35
		h-11.9v-6.7h-0.5c-1.6,2.4-3.9,4.4-6.8,6c-2.9,1.6-6.3,2.4-10.1,2.4C1649.6,718.1,1646,717.3,1642.9,715.8z M1663.6,706
		c2.3-1.4,4.2-3.3,5.5-5.6c1.3-2.3,2-4.9,2-7.6c-1.7-1-3.6-1.7-5.9-2.3c-2.2-0.6-4.6-0.9-7-0.9c-4.5,0-7.9,0.9-10,2.7
		c-2.1,1.8-3.2,4.1-3.2,7c0,2.6,1,4.7,3,6.3c2,1.6,4.5,2.5,7.7,2.5C1658.7,708.1,1661.3,707.4,1663.6,706z"/>
	<path d="M1694.8,660.3h11.5v7.4h0.5c1.7-2.7,4.1-4.9,7.2-6.6c3.1-1.7,6.4-2.5,9.9-2.5c4,0,7.6,0.9,10.6,2.8c3,1.9,5.2,4.3,6.5,7.4
		c1.9-3.1,4.5-5.6,7.6-7.4c3.2-1.9,6.9-2.8,11.3-2.8c6.5,0,11.3,2,14.7,5.9c3.3,3.9,5,9.3,5,16v36h-12.1v-33.9
		c0-8.5-3.6-12.8-10.9-12.8c-3.9,0-7.1,1.6-9.6,4.7c-2.5,3.2-3.7,7-3.7,11.7v30.2h-12.1v-33.9c0-8.5-3.7-12.8-11.2-12.8
		c-3.8,0-6.9,1.6-9.4,4.7c-2.5,3.2-3.7,7-3.7,11.7v30.2h-12.1V660.3z"/>
	<path d="M1792.2,649.8c-1.6-1.6-2.4-3.5-2.4-5.8c0-2.3,0.8-4.2,2.4-5.8c1.6-1.6,3.5-2.4,5.8-2.4c2.3,0,4.2,0.8,5.8,2.4
		c1.6,1.6,2.4,3.5,2.4,5.8c0,2.3-0.8,4.2-2.4,5.8c-1.6,1.6-3.5,2.4-5.8,2.4C1795.7,652.1,1793.8,651.3,1792.2,649.8z M1792,660.3
		h12.1v56.1H1792V660.3z"/>
	<path d="M1855.8,714.3c-4.4-2.6-7.9-6.1-10.3-10.6s-3.7-9.6-3.7-15.3s1.2-10.8,3.7-15.3c2.5-4.5,5.9-8,10.3-10.6
		c4.4-2.6,9.4-3.9,15-3.9c6.2,0,11.4,1.4,15.7,4.2c4.3,2.8,7.4,6.6,9.2,11.3l-11.1,4.6c-2.5-5.9-7.2-8.9-14.2-8.9
		c-3,0-5.8,0.8-8.3,2.3c-2.5,1.5-4.5,3.7-6,6.5c-1.5,2.8-2.3,6.1-2.3,9.7c0,3.7,0.8,6.9,2.3,9.8c1.5,2.9,3.5,5.1,6,6.6
		c2.5,1.5,5.3,2.3,8.3,2.3c3.5,0,6.5-0.8,9.1-2.4c2.5-1.6,4.5-3.8,5.8-6.8l10.9,4.7c-2.1,4.8-5.4,8.5-9.7,11.3
		c-4.3,2.8-9.6,4.2-15.7,4.2C1865.3,718.1,1860.3,716.8,1855.8,714.3z"/>
	<path d="M1914.8,714.2c-4.5-2.6-8-6.2-10.5-10.7c-2.5-4.5-3.7-9.6-3.7-15.2c0-5.6,1.2-10.6,3.7-15.2c2.5-4.5,6-8.1,10.5-10.7
		c4.5-2.6,9.5-3.9,15.2-3.9c5.6,0,10.7,1.3,15.2,4c4.5,2.6,8,6.2,10.5,10.8c2.5,4.5,3.7,9.6,3.7,15.1c0,5.6-1.2,10.6-3.7,15.2
		c-2.5,4.5-6,8.1-10.5,10.7c-4.5,2.6-9.5,3.9-15.2,3.9C1924.3,718.1,1919.3,716.8,1914.8,714.2z M1938.6,704.8
		c2.6-1.5,4.7-3.7,6.3-6.5c1.6-2.8,2.4-6.1,2.4-10c0-3.8-0.8-7.1-2.4-9.9c-1.6-2.8-3.7-4.9-6.3-6.4c-2.6-1.5-5.5-2.3-8.6-2.3
		s-5.9,0.8-8.6,2.3c-2.6,1.5-4.7,3.6-6.3,6.4c-1.6,2.8-2.4,6.1-2.4,9.9c0,3.8,0.8,7.1,2.4,10c1.6,2.8,3.7,5,6.3,6.5
		c2.6,1.5,5.5,2.3,8.6,2.3S1935.9,706.3,1938.6,704.8z"/>
	<path d="M1979.1,714.3c-4.1-2.6-7.4-6.1-9.7-10.6c-2.4-4.5-3.6-9.6-3.6-15.3s1.2-10.8,3.6-15.3c2.4-4.5,5.6-8,9.7-10.6
		c4.1-2.6,8.7-3.9,13.8-3.9c4,0,7.5,0.9,10.7,2.6c3.2,1.8,5.5,3.9,7.1,6.5h0.5l-0.5-7.9v-22.1h12.1v78.8h-11.6v-7.3h-0.5
		c-1.6,2.5-4,4.6-7.1,6.4c-3.2,1.8-6.7,2.6-10.7,2.6C1987.8,718.1,1983.2,716.8,1979.1,714.3z M2002.8,704.7
		c2.5-1.5,4.6-3.7,6.1-6.6c1.5-2.9,2.3-6.1,2.3-9.8c0-3.7-0.8-6.9-2.3-9.7c-1.5-2.8-3.6-5-6.1-6.5c-2.5-1.5-5.3-2.3-8.2-2.3
		c-2.9,0-5.7,0.8-8.2,2.3c-2.6,1.5-4.6,3.7-6.2,6.5c-1.5,2.8-2.3,6.1-2.3,9.7c0,3.7,0.8,6.9,2.3,9.8c1.5,2.9,3.6,5.1,6.2,6.6
		c2.6,1.5,5.3,2.3,8.2,2.3C1997.5,707,2000.2,706.2,2002.8,704.7z"/>
	<path d="M2046,714.3c-4.4-2.6-7.8-6.1-10.2-10.6s-3.7-9.6-3.7-15.2c0-5.4,1.2-10.3,3.6-14.9c2.4-4.6,5.7-8.2,10-10.9
		c4.3-2.7,9.1-4.1,14.5-4.1c5.6,0,10.5,1.2,14.7,3.7c4.1,2.5,7.3,5.9,9.5,10.2c2.2,4.3,3.2,9.2,3.2,14.6c0,1-0.1,2.3-0.3,3.8h-43
		c0.4,5.2,2.3,9.2,5.6,12c3.3,2.8,7.1,4.2,11.4,4.2c3.4,0,6.4-0.8,9-2.4c2.5-1.6,4.6-3.7,6.1-6.4l10.2,4.8
		c-2.6,4.6-6.1,8.2-10.3,10.9c-4.3,2.6-9.3,4-15.3,4C2055.3,718.1,2050.3,716.8,2046,714.3z M2075.2,681.7c-0.1-2-0.8-3.9-1.9-5.9
		c-1.1-1.9-2.8-3.6-5-4.9c-2.2-1.3-5-2-8.2-2c-3.9,0-7.2,1.2-9.8,3.5c-2.7,2.3-4.5,5.4-5.6,9.3H2075.2z"/>
</g>
</svg>
