<?xml version="1.0" encoding="UTF-8" standalone="no"?>
<!DOCTYPE svg PUBLIC "-//W3C//DTD SVG 1.1//EN" "http://www.w3.org/Graphics/SVG/1.1/DTD/svg11.dtd">
<svg width="100%" height="100%" viewBox="0 0 2562 822" version="1.1" xmlns="http://www.w3.org/2000/svg" xmlns:xlink="http://www.w3.org/1999/xlink" xml:space="preserve" xmlns:serif="http://www.serif.com/" style="fill-rule:evenodd;clip-rule:evenodd;stroke-linejoin:round;stroke-miterlimit:2;">
<style type="text/css">
	.st5{fill:black;}
	@media (prefers-color-scheme: dark) {
		.st5{ fill: white; }
	}
</style>
    <g id="Layer-1" serif:id="Layer 1">
        <g transform="matrix(1.56492,0,0,1.19851,-60.8197,43.8022)">
            <path d="M257.863,366.345L284.041,409.193L254.176,439.041L235.371,408.23C218.165,428.771 197.517,439.041 173.428,439.041C155.485,439.041 139.077,433.746 124.206,423.154C109.335,412.563 97.597,398.04 88.994,379.585C80.391,361.13 76.089,340.509 76.089,317.721C76.089,298.143 80.022,279.367 87.888,261.393C95.754,243.42 106.446,228.496 119.966,216.62C108.167,196.721 102.268,178.266 102.268,161.256C102.268,146.171 105.156,132.29 110.932,119.612C116.709,106.934 124.636,96.985 134.714,89.763C144.792,82.542 155.976,78.931 168.266,78.931C183.998,78.931 197.149,84.307 207.718,95.059C218.288,105.811 225.785,119.692 230.21,136.703L196.657,159.812C190.512,137.987 181.171,127.074 168.635,127.074C161.015,127.074 154.686,130.123 149.647,136.222C144.608,142.32 142.088,150.504 142.088,160.774C142.088,170.724 145.038,180.513 150.937,190.142L234.634,328.312L257.494,279.688L287.728,304.241L257.863,366.345ZM174.535,390.898C189.774,390.898 202.556,384.158 212.88,370.678L142.088,253.209C133.485,260.27 126.725,269.498 121.809,280.891C116.893,292.285 114.435,304.241 114.435,316.758C114.435,330.88 117.139,343.638 122.547,355.032C127.954,366.426 135.267,375.252 144.485,381.51C153.702,387.769 163.719,390.898 174.535,390.898Z" style="fill:rgb(66,133,244);fill-rule:nonzero;"/>
            <path d="M382.855,439.041C359.995,439.041 342.604,430.135 330.683,412.322C318.761,394.509 312.8,369.715 312.8,337.941L312.8,185.809L353.358,185.809L353.358,330.72C353.358,350.619 356.984,365.543 364.235,375.493C371.486,385.442 381.011,390.417 392.81,390.417C402.396,390.417 410.877,387.127 418.251,380.548C425.625,373.968 431.279,365.222 435.211,354.31C439.144,343.397 441.111,331.682 441.111,319.165L441.111,185.809L481.669,185.809L481.669,431.339L443.323,431.339L443.323,399.564L441.111,399.564C435.949,411.118 427.96,420.587 417.145,427.968C406.329,435.35 394.899,439.041 382.855,439.041Z" style="fill:rgb(219,68,55);fill-rule:nonzero;"/>
            <path d="M599.655,439.041C582.695,439.041 567.332,433.425 553.567,422.191C539.802,410.958 528.925,395.472 520.936,375.733C512.947,355.995 508.953,333.608 508.953,308.574C508.953,283.539 512.947,261.153 520.936,241.414C528.925,221.675 539.802,206.189 553.567,194.956C567.332,183.723 582.695,178.106 599.655,178.106C612.929,178.106 624.851,181.957 635.42,189.66C645.99,197.363 653.978,206.831 659.386,218.065L661.23,218.065L659.386,183.402L659.386,86.634L699.944,86.634L699.944,431.339L661.23,431.339L661.23,399.564L659.386,399.564C653.978,410.477 645.99,419.784 635.42,427.487C624.851,435.19 612.929,439.041 599.655,439.041ZM605.555,390.417C615.387,390.417 624.543,387.047 633.024,380.307C641.504,373.567 648.325,363.938 653.487,351.421C658.649,338.904 661.23,324.621 661.23,308.574C661.23,292.526 658.649,278.324 653.487,265.967C648.325,253.61 641.504,244.062 633.024,237.322C624.543,230.582 615.387,227.212 605.555,227.212C595.723,227.212 586.505,230.582 577.902,237.322C569.298,244.062 562.416,253.61 557.254,265.967C552.092,278.324 549.511,292.526 549.511,308.574C549.511,324.621 552.092,338.904 557.254,351.421C562.416,363.938 569.298,373.567 577.902,380.307C586.505,387.047 595.723,390.417 605.555,390.417Z" style="fill:rgb(244,180,0);fill-rule:nonzero;"/>
            <path d="M739.396,185.809L778.11,185.809L778.11,218.065L779.954,218.065C785.607,206.189 793.596,196.561 803.92,189.179C814.244,181.797 825.305,178.106 837.104,178.106C850.623,178.106 862.422,182.198 872.5,190.382C882.578,198.567 889.829,209.399 894.254,222.879C900.644,209.399 909.186,198.567 919.879,190.382C930.571,182.198 943.169,178.106 957.671,178.106C979.302,178.106 995.71,186.692 1006.89,203.863C1018.08,221.034 1023.67,244.383 1023.67,273.911L1023.67,431.339L983.112,431.339L983.112,283.058C983.112,245.827 970.945,227.212 946.61,227.212C933.582,227.212 922.89,234.112 914.532,247.913C906.175,261.714 901.996,278.725 901.996,298.945L901.996,431.339L861.438,431.339L861.438,283.058C861.438,245.827 848.902,227.212 823.83,227.212C811.048,227.212 800.54,234.112 792.306,247.913C784.071,261.714 779.954,278.725 779.954,298.945L779.954,431.339L739.396,431.339L739.396,185.809Z" style="fill:rgb(66,133,244);fill-rule:nonzero;"/>
            <path d="M1061.65,207.955L1230.88,207.955L1230.88,253.691L1061.65,253.691L1061.65,207.955ZM1061.65,301.834L1230.88,301.834L1230.88,347.57L1061.65,347.57L1061.65,301.834Z" style="fill:rgb(244,180,0);fill-rule:nonzero;"/>
            <path d="M1350.35,439.041C1338.06,439.041 1325.95,435.752 1314.03,429.172C1302.11,422.593 1291.6,412.643 1282.5,399.323C1273.41,386.004 1267.02,369.555 1263.33,349.977L1299.83,331.201C1303.03,348.532 1308.99,362.494 1317.71,373.085C1326.44,383.677 1337.19,388.973 1349.98,388.973C1363.74,388.973 1375.17,383.276 1384.27,371.882C1393.36,360.488 1397.91,345.804 1397.91,327.831C1397.91,309.858 1393.42,295.013 1384.45,283.299C1375.48,271.584 1363.99,265.726 1349.98,265.726C1342.11,265.726 1334.74,267.973 1327.86,272.466C1320.97,276.96 1315.32,283.218 1310.89,291.242L1270.7,268.134L1286.19,102.04L1423.35,102.04L1423.35,150.183L1320.11,150.183L1310.89,236.841L1313.11,237.322C1325.89,224.163 1340.76,217.583 1357.72,217.583C1371.98,217.583 1385.31,222.237 1397.73,231.545C1410.14,240.852 1420.03,253.851 1427.41,270.541C1434.78,287.23 1438.47,306.167 1438.47,327.349C1438.47,348.532 1434.66,367.629 1427.04,384.64C1419.42,401.65 1408.91,414.97 1395.51,424.598C1382.12,434.227 1367.06,439.041 1350.35,439.041Z" style="fill:rgb(15,157,88);fill-rule:nonzero;"/>
            <path d="M1556.45,439.041C1539.25,439.041 1523.88,433.826 1510.37,423.395C1496.85,412.964 1486.4,399.083 1479.03,381.751C1471.65,364.42 1467.96,345.965 1467.96,326.387C1467.96,307.45 1470.79,289.557 1476.44,272.707C1482.1,255.857 1490.45,236.841 1501.52,215.658L1565.3,93.374L1597.38,122.26L1539.86,226.73L1541.34,228.656C1547.97,223.521 1556.33,220.953 1566.41,220.953C1579.19,220.953 1591.54,225.607 1603.46,234.915C1615.39,244.222 1625.1,256.98 1632.59,273.189C1640.09,289.397 1643.84,307.611 1643.84,327.831C1643.84,348.051 1639.84,366.666 1631.86,383.677C1623.87,400.687 1613.17,414.167 1599.78,424.117C1586.38,434.067 1571.94,439.041 1556.45,439.041ZM1556.09,389.454C1564.44,389.454 1572.31,386.806 1579.68,381.51C1587.06,376.215 1592.89,368.913 1597.2,359.605C1601.5,350.298 1603.65,339.867 1603.65,328.312C1603.65,316.758 1601.44,306.247 1597.01,296.779C1592.59,287.311 1586.75,279.929 1579.5,274.633C1572.25,269.337 1564.44,266.689 1556.09,266.689C1547.73,266.689 1539.86,269.337 1532.49,274.633C1525.11,279.929 1519.21,287.311 1514.79,296.779C1510.37,306.247 1508.15,316.758 1508.15,328.312C1508.15,339.867 1510.3,350.298 1514.61,359.605C1518.91,368.913 1524.75,376.215 1532.12,381.51C1539.49,386.806 1547.48,389.454 1556.09,389.454Z" style="fill:rgb(219,68,55);fill-rule:nonzero;"/>
        </g>
        <g class="st5" transform="matrix(1.35269,0,0,1,-429.992,-1)">
            <path d="M685.008,718.491C683.131,718.491 681.365,718.08 679.709,717.259C678.053,716.438 676.701,715.355 675.652,714.011C673.278,710.8 672.092,706.432 672.092,700.907L672.092,671.339L664.723,671.339L664.723,660.475L672.092,660.475L672.092,644.347L681.199,644.347L681.199,660.475L691.466,660.475L691.466,671.339L681.199,671.339L681.199,698.219C681.199,701.28 681.641,703.446 682.524,704.715C683.352,706.208 684.787,706.955 686.83,706.955C687.768,706.955 688.596,706.787 689.314,706.451C690.031,706.115 690.804,705.574 691.632,704.827L691.632,716.811C689.81,717.931 687.602,718.491 685.008,718.491Z" style="fill-rule:nonzero;"/>
            <path d="M698.918,637.403L708.026,637.403L708.026,659.243L707.612,667.979L708.026,667.979C709.24,665.291 711.048,663.07 713.449,661.315C715.85,659.56 718.431,658.683 721.191,658.683C726.324,658.683 730.244,660.718 732.948,664.787C735.653,668.856 737.005,674.4 737.005,681.419L737.005,717.595L727.898,717.595L727.898,683.099C727.898,678.768 727.056,675.52 725.372,673.355C723.689,671.19 721.495,670.107 718.79,670.107C716.747,670.107 714.912,670.891 713.284,672.459C711.655,674.027 710.372,676.099 709.434,678.675C708.495,681.251 708.026,683.995 708.026,686.907L708.026,717.595L698.918,717.595L698.918,637.403Z" style="fill-rule:nonzero;"/>
            <path d="M764.991,719.387C760.851,719.387 757.139,718.08 753.855,715.467C750.571,712.854 748.004,709.251 746.155,704.659C744.305,700.067 743.381,694.896 743.381,689.147C743.381,683.696 744.278,678.638 746.072,673.971C747.866,669.304 750.364,665.59 753.565,662.827C756.767,660.064 760.41,658.683 764.494,658.683C768.745,658.683 772.429,659.952 775.548,662.491C778.667,665.03 781.04,668.502 782.669,672.907C784.297,677.312 785.111,682.278 785.111,687.803C785.111,688.848 785.028,690.155 784.863,691.723L752.489,691.723C752.82,697.024 754.214,701.112 756.67,703.987C759.126,706.862 761.983,708.299 765.24,708.299C767.834,708.299 770.083,707.496 771.988,705.891C773.892,704.286 775.424,702.102 776.583,699.339L784.283,704.267C782.296,708.971 779.702,712.667 776.5,715.355C773.299,718.043 769.462,719.387 764.991,719.387ZM775.838,682.315C775.727,680.299 775.258,678.302 774.43,676.323C773.602,674.344 772.346,672.683 770.663,671.339C768.979,669.995 766.923,669.323 764.494,669.323C761.569,669.323 759.099,670.499 757.084,672.851C755.069,675.203 753.675,678.358 752.903,682.315L775.838,682.315Z" style="fill-rule:nonzero;"/>
            <path d="M824.854,719.387C819.721,719.387 815.816,717.315 813.138,713.171C810.461,709.027 809.123,703.259 809.123,695.867L809.123,660.475L818.231,660.475L818.231,694.187C818.231,698.816 819.045,702.288 820.673,704.603C822.301,706.918 824.44,708.075 827.09,708.075C829.243,708.075 831.147,707.31 832.803,705.779C834.459,704.248 835.729,702.214 836.612,699.675C837.495,697.136 837.937,694.411 837.937,691.499L837.937,660.475L847.044,660.475L847.044,717.595L838.433,717.595L838.433,710.203L837.937,710.203C836.777,712.891 834.983,715.094 832.555,716.811C830.126,718.528 827.559,719.387 824.854,719.387Z" style="fill-rule:nonzero;"/>
            <rect x="855.987" y="637.403" width="9.108" height="80.192" style="fill-rule:nonzero;"/>
            <path d="M891.838,718.491C889.961,718.491 888.195,718.08 886.539,717.259C884.883,716.438 883.531,715.355 882.482,714.011C880.108,710.8 878.922,706.432 878.922,700.907L878.922,671.339L871.553,671.339L871.553,660.475L878.922,660.475L878.922,644.347L888.029,644.347L888.029,660.475L898.296,660.475L898.296,671.339L888.029,671.339L888.029,698.219C888.029,701.28 888.471,703.446 889.354,704.715C890.182,706.208 891.617,706.955 893.66,706.955C894.598,706.955 895.426,706.787 896.144,706.451C896.861,706.115 897.634,705.574 898.462,704.827L898.462,716.811C896.64,717.931 894.433,718.491 891.838,718.491Z" style="fill-rule:nonzero;"/>
            <path d="M905.334,660.475L914.028,660.475L914.028,668.875L914.442,668.875C915.38,665.963 917.009,663.555 919.327,661.651C921.646,659.747 924.102,658.795 926.696,658.795C928.739,658.795 930.45,659.168 931.83,659.915L931.83,672.683C929.401,671.488 927.221,670.891 925.289,670.891C923.191,670.891 921.328,671.638 919.7,673.131C918.071,674.624 916.788,676.622 915.85,679.123C914.911,681.624 914.442,684.368 914.442,687.355L914.442,717.595L905.334,717.595L905.334,660.475Z" style="fill-rule:nonzero;"/>
            <path d="M948.886,719.387C945.85,719.387 943.145,718.584 940.772,716.979C938.398,715.374 936.549,713.096 935.224,710.147C933.9,707.198 933.237,703.856 933.237,700.123C933.237,694.224 934.879,689.558 938.164,686.123C941.448,682.688 945.602,680.971 950.625,680.971C953.109,680.971 955.344,681.288 957.332,681.923C959.319,682.558 960.892,683.248 962.051,683.995L962.051,681.083C962.051,677.574 961.085,674.718 959.153,672.515C957.221,670.312 954.737,669.211 951.701,669.211C949.549,669.211 947.52,669.846 945.616,671.115C943.711,672.384 942.18,674.139 941.02,676.379L934.645,669.771C936.522,666.262 938.95,663.536 941.931,661.595C944.912,659.654 948.224,658.683 951.867,658.683C957.994,658.683 962.713,660.718 966.025,664.787C969.337,668.856 970.993,674.587 970.993,681.979L970.993,717.595L962.051,717.595L962.051,710.763L961.637,710.763C960.423,713.227 958.712,715.28 956.504,716.923C954.296,718.566 951.757,719.387 948.886,719.387ZM950.459,709.195C952.667,709.195 954.654,708.486 956.421,707.067C958.187,705.648 959.567,703.744 960.561,701.355C961.554,698.966 962.051,696.39 962.051,693.627C960.782,692.656 959.305,691.872 957.621,691.275C955.938,690.678 954.185,690.379 952.364,690.379C948.941,690.379 946.43,691.294 944.829,693.123C943.228,694.952 942.428,697.323 942.428,700.235C942.428,702.848 943.173,704.995 944.663,706.675C946.154,708.355 948.086,709.195 950.459,709.195Z" style="fill-rule:nonzero;"/>
            <rect x="979.19" y="677.611" width="27.241" height="10.528" style="fill-rule:nonzero;"/>
            <path d="M1015.29,660.475L1023.98,660.475L1023.98,667.979L1024.4,667.979C1025.67,665.216 1027.46,662.976 1029.78,661.259C1032.1,659.542 1034.58,658.683 1037.23,658.683C1040.27,658.683 1042.92,659.635 1045.18,661.539C1047.44,663.443 1049.07,665.963 1050.07,669.099C1051.5,665.963 1053.42,663.443 1055.82,661.539C1058.22,659.635 1061.05,658.683 1064.31,658.683C1069.16,658.683 1072.85,660.68 1075.36,664.675C1077.87,668.67 1079.13,674.102 1079.13,680.971L1079.13,717.595L1070.02,717.595L1070.02,683.099C1070.02,674.438 1067.29,670.107 1061.82,670.107C1058.9,670.107 1056.5,671.712 1054.62,674.923C1052.74,678.134 1051.8,682.091 1051.8,686.795L1051.8,717.595L1042.7,717.595L1042.7,683.099C1042.7,674.438 1039.88,670.107 1034.25,670.107C1031.38,670.107 1029.02,671.712 1027.17,674.923C1025.32,678.134 1024.4,682.091 1024.4,686.795L1024.4,717.595L1015.29,717.595L1015.29,660.475Z" style="fill-rule:nonzero;"/>
            <path d="M1093.04,652.187C1091.33,652.187 1089.88,651.384 1088.69,649.779C1087.5,648.174 1086.91,646.214 1086.91,643.899C1086.91,641.584 1087.5,639.624 1088.69,638.019C1089.88,636.414 1091.33,635.611 1093.04,635.611C1094.75,635.611 1096.2,636.414 1097.38,638.019C1098.57,639.624 1099.16,641.584 1099.16,643.899C1099.16,646.214 1098.57,648.174 1097.38,649.779C1096.2,651.384 1094.75,652.187 1093.04,652.187ZM1088.48,660.475L1097.59,660.475L1097.59,717.595L1088.48,717.595L1088.48,660.475Z" style="fill-rule:nonzero;"/>
            <path d="M1107.28,660.475L1115.97,660.475L1115.97,667.979L1116.39,667.979C1117.6,665.291 1119.41,663.07 1121.81,661.315C1124.21,659.56 1126.76,658.683 1129.47,658.683C1134.6,658.683 1138.51,660.718 1141.18,664.787C1143.86,668.856 1145.2,674.4 1145.2,681.419L1145.2,717.595L1136.09,717.595L1136.09,683.099C1136.09,678.619 1135.28,675.334 1133.65,673.243C1132.02,671.152 1129.77,670.107 1126.9,670.107C1124.86,670.107 1123.04,670.872 1121.44,672.403C1119.84,673.934 1118.6,675.968 1117.71,678.507C1116.83,681.046 1116.39,683.771 1116.39,686.683L1116.39,717.595L1107.28,717.595L1107.28,660.475Z" style="fill-rule:nonzero;"/>
            <path d="M1159.03,652.187C1157.32,652.187 1155.87,651.384 1154.68,649.779C1153.49,648.174 1152.9,646.214 1152.9,643.899C1152.9,641.584 1153.49,639.624 1154.68,638.019C1155.87,636.414 1157.32,635.611 1159.03,635.611C1160.74,635.611 1162.19,636.414 1163.38,638.019C1164.56,639.624 1165.15,641.584 1165.15,643.899C1165.15,646.214 1164.56,648.174 1163.38,649.779C1162.19,651.384 1160.74,652.187 1159.03,652.187ZM1154.47,660.475L1163.58,660.475L1163.58,717.595L1154.47,717.595L1154.47,660.475Z" style="fill-rule:nonzero;"/>
            <path d="M1173.27,660.475L1181.96,660.475L1181.96,667.979L1182.38,667.979C1183.65,665.216 1185.44,662.976 1187.76,661.259C1190.08,659.542 1192.56,658.683 1195.21,658.683C1198.25,658.683 1200.9,659.635 1203.16,661.539C1205.42,663.443 1207.05,665.963 1208.05,669.099C1209.48,665.963 1211.4,663.443 1213.8,661.539C1216.2,659.635 1219.03,658.683 1222.29,658.683C1227.14,658.683 1230.83,660.68 1233.34,664.675C1235.85,668.67 1237.11,674.102 1237.11,680.971L1237.11,717.595L1228,717.595L1228,683.099C1228,674.438 1225.27,670.107 1219.8,670.107C1216.88,670.107 1214.48,671.712 1212.6,674.923C1210.72,678.134 1209.78,682.091 1209.78,686.795L1209.78,717.595L1200.68,717.595L1200.68,683.099C1200.68,674.438 1197.86,670.107 1192.23,670.107C1189.36,670.107 1187,671.712 1185.15,674.923C1183.3,678.134 1182.38,682.091 1182.38,686.795L1182.38,717.595L1173.27,717.595L1173.27,660.475Z" style="fill-rule:nonzero;"/>
            <path d="M1258.63,719.387C1255.6,719.387 1252.89,718.584 1250.52,716.979C1248.15,715.374 1246.3,713.096 1244.97,710.147C1243.65,707.198 1242.99,703.856 1242.99,700.123C1242.99,694.224 1244.63,689.558 1247.91,686.123C1251.2,682.688 1255.35,680.971 1260.37,680.971C1262.86,680.971 1265.09,681.288 1267.08,681.923C1269.07,682.558 1270.64,683.248 1271.8,683.995L1271.8,681.083C1271.8,677.574 1270.83,674.718 1268.9,672.515C1266.97,670.312 1264.49,669.211 1261.45,669.211C1259.3,669.211 1257.27,669.846 1255.36,671.115C1253.46,672.384 1251.93,674.139 1250.77,676.379L1244.39,669.771C1246.27,666.262 1248.7,663.536 1251.68,661.595C1254.66,659.654 1257.97,658.683 1261.62,658.683C1267.74,658.683 1272.46,660.718 1275.77,664.787C1279.09,668.856 1280.74,674.587 1280.74,681.979L1280.74,717.595L1271.8,717.595L1271.8,710.763L1271.38,710.763C1270.17,713.227 1268.46,715.28 1266.25,716.923C1264.04,718.566 1261.51,719.387 1258.63,719.387ZM1260.21,709.195C1262.42,709.195 1264.4,708.486 1266.17,707.067C1267.93,705.648 1269.32,703.744 1270.31,701.355C1271.3,698.966 1271.8,696.39 1271.8,693.627C1270.53,692.656 1269.05,691.872 1267.37,691.275C1265.69,690.678 1263.93,690.379 1262.11,690.379C1258.69,690.379 1256.18,691.294 1254.58,693.123C1252.98,694.952 1252.18,697.323 1252.18,700.235C1252.18,702.848 1252.92,704.995 1254.41,706.675C1255.9,708.355 1257.83,709.195 1260.21,709.195Z" style="fill-rule:nonzero;"/>
            <rect x="1289.02" y="637.403" width="9.108" height="80.192" style="fill-rule:nonzero;"/>
            <path d="M1312.37,652.187C1310.66,652.187 1309.21,651.384 1308.02,649.779C1306.84,648.174 1306.24,646.214 1306.24,643.899C1306.24,641.584 1306.84,639.624 1308.02,638.019C1309.21,636.414 1310.66,635.611 1312.37,635.611C1314.08,635.611 1315.53,636.414 1316.72,638.019C1317.9,639.624 1318.5,641.584 1318.5,643.899C1318.5,646.214 1317.9,648.174 1316.72,649.779C1315.53,651.384 1314.08,652.187 1312.37,652.187ZM1307.82,660.475L1316.92,660.475L1316.92,717.595L1307.82,717.595L1307.82,660.475Z" style="fill-rule:nonzero;"/>
            <path d="M1342.01,719.387C1337.15,719.387 1333.18,717.95 1330.09,715.075C1327,712.2 1324.82,708.523 1323.55,704.043L1331.66,699.227C1332.66,702.214 1334.05,704.491 1335.84,706.059C1337.64,707.627 1339.69,708.411 1342.01,708.411C1344.28,708.411 1346.18,707.87 1347.73,706.787C1349.27,705.704 1350.04,704.08 1350.04,701.915C1350.04,699.824 1349.38,698.182 1348.06,696.987C1346.73,695.792 1344.69,694.747 1341.93,693.851L1336.88,692.171C1333.51,691.051 1330.72,689.072 1328.52,686.235C1326.31,683.398 1325.2,679.814 1325.2,675.483C1325.2,672.123 1325.94,669.174 1327.4,666.635C1328.86,664.096 1330.84,662.136 1333.32,660.755C1335.8,659.374 1338.51,658.683 1341.43,658.683C1345.35,658.683 1348.8,659.747 1351.78,661.875C1354.76,664.003 1356.92,667.083 1358.24,671.115L1350.29,675.819C1348.69,671.414 1345.77,669.211 1341.52,669.211C1339.47,669.211 1337.76,669.771 1336.38,670.891C1335,672.011 1334.31,673.467 1334.31,675.259C1334.31,676.976 1334.84,678.376 1335.88,679.459C1336.93,680.542 1338.48,681.456 1340.52,682.203L1346.73,684.331C1350.87,685.75 1354,687.896 1356.13,690.771C1358.26,693.646 1359.32,697.174 1359.32,701.355C1359.32,704.939 1358.56,708.094 1357.04,710.819C1355.52,713.544 1353.44,715.654 1350.79,717.147C1348.14,718.64 1345.21,719.387 1342.01,719.387Z" style="fill-rule:nonzero;"/>
            <path d="M1382.42,718.491C1380.54,718.491 1378.78,718.08 1377.12,717.259C1375.46,716.438 1374.11,715.355 1373.06,714.011C1370.69,710.8 1369.5,706.432 1369.5,700.907L1369.5,671.339L1362.13,671.339L1362.13,660.475L1369.5,660.475L1369.5,644.347L1378.61,644.347L1378.61,660.475L1388.88,660.475L1388.88,671.339L1378.61,671.339L1378.61,698.219C1378.61,701.28 1379.05,703.446 1379.93,704.715C1380.76,706.208 1382.2,706.955 1384.24,706.955C1385.18,706.955 1386.01,706.787 1386.72,706.451C1387.44,706.115 1388.21,705.574 1389.04,704.827L1389.04,716.811C1387.22,717.931 1385.01,718.491 1382.42,718.491Z" style="fill-rule:nonzero;"/>
            <path d="M1429.03,719.387C1424.18,719.387 1420.2,717.95 1417.11,715.075C1414.02,712.2 1411.84,708.523 1410.57,704.043L1418.68,699.227C1419.68,702.214 1421.07,704.491 1422.87,706.059C1424.66,707.627 1426.71,708.411 1429.03,708.411C1431.3,708.411 1433.2,707.87 1434.75,706.787C1436.29,705.704 1437.07,704.08 1437.07,701.915C1437.07,699.824 1436.4,698.182 1435.08,696.987C1433.75,695.792 1431.71,694.747 1428.95,693.851L1423.9,692.171C1420.53,691.051 1417.75,689.072 1415.54,686.235C1413.33,683.398 1412.23,679.814 1412.23,675.483C1412.23,672.123 1412.96,669.174 1414.42,666.635C1415.88,664.096 1417.86,662.136 1420.34,660.755C1422.82,659.374 1425.53,658.683 1428.45,658.683C1432.37,658.683 1435.82,659.747 1438.8,661.875C1441.78,664.003 1443.94,667.083 1445.26,671.115L1437.31,675.819C1435.71,671.414 1432.79,669.211 1428.54,669.211C1426.49,669.211 1424.78,669.771 1423.4,670.891C1422.02,672.011 1421.33,673.467 1421.33,675.259C1421.33,676.976 1421.86,678.376 1422.91,679.459C1423.95,680.542 1425.5,681.456 1427.54,682.203L1433.75,684.331C1437.89,685.75 1441.03,687.896 1443.15,690.771C1445.28,693.646 1446.34,697.174 1446.34,701.355C1446.34,704.939 1445.58,708.094 1444.06,710.819C1442.54,713.544 1440.46,715.654 1437.81,717.147C1435.16,718.64 1432.24,719.387 1429.03,719.387Z" style="fill-rule:nonzero;"/>
            <path d="M1472.25,719.387C1468.11,719.387 1464.4,718.08 1461.12,715.467C1457.83,712.854 1455.27,709.251 1453.42,704.659C1451.57,700.067 1450.64,694.896 1450.64,689.147C1450.64,683.696 1451.54,678.638 1453.34,673.971C1455.13,669.304 1457.63,665.59 1460.83,662.827C1464.03,660.064 1467.67,658.683 1471.76,658.683C1476.01,658.683 1479.69,659.952 1482.81,662.491C1485.93,665.03 1488.3,668.502 1489.93,672.907C1491.56,677.312 1492.37,682.278 1492.37,687.803C1492.37,688.848 1492.29,690.155 1492.13,691.723L1459.75,691.723C1460.08,697.024 1461.48,701.112 1463.93,703.987C1466.39,706.862 1469.25,708.299 1472.5,708.299C1475.1,708.299 1477.35,707.496 1479.25,705.891C1481.15,704.286 1482.69,702.102 1483.85,699.339L1491.55,704.267C1489.56,708.971 1486.96,712.667 1483.76,715.355C1480.56,718.043 1476.73,719.387 1472.25,719.387ZM1483.1,682.315C1482.99,680.299 1482.52,678.302 1481.69,676.323C1480.87,674.344 1479.61,672.683 1477.93,671.339C1476.24,669.995 1474.19,669.323 1471.76,669.323C1468.83,669.323 1466.36,670.499 1464.35,672.851C1462.33,675.203 1460.94,678.358 1460.16,682.315L1483.1,682.315Z" style="fill-rule:nonzero;"/>
            <path d="M1512.66,719.387C1509.62,719.387 1506.92,718.584 1504.55,716.979C1502.17,715.374 1500.32,713.096 1499,710.147C1497.67,707.198 1497.01,703.856 1497.01,700.123C1497.01,694.224 1498.65,689.558 1501.94,686.123C1505.22,682.688 1509.38,680.971 1514.4,680.971C1516.88,680.971 1519.12,681.288 1521.11,681.923C1523.09,682.558 1524.66,683.248 1525.82,683.995L1525.82,681.083C1525.82,677.574 1524.86,674.718 1522.93,672.515C1521,670.312 1518.51,669.211 1515.48,669.211C1513.32,669.211 1511.29,669.846 1509.39,671.115C1507.49,672.384 1505.95,674.139 1504.79,676.379L1498.42,669.771C1500.3,666.262 1502.72,663.536 1505.7,661.595C1508.68,659.654 1512,658.683 1515.64,658.683C1521.77,658.683 1526.49,660.718 1529.8,664.787C1533.11,668.856 1534.77,674.587 1534.77,681.979L1534.77,717.595L1525.82,717.595L1525.82,710.763L1525.41,710.763C1524.2,713.227 1522.49,715.28 1520.28,716.923C1518.07,718.566 1515.53,719.387 1512.66,719.387ZM1514.23,709.195C1516.44,709.195 1518.43,708.486 1520.19,707.067C1521.96,705.648 1523.34,703.744 1524.33,701.355C1525.33,698.966 1525.82,696.39 1525.82,693.627C1524.56,692.656 1523.08,691.872 1521.39,691.275C1519.71,690.678 1517.96,690.379 1516.14,690.379C1512.71,690.379 1510.2,691.294 1508.6,693.123C1507,694.952 1506.2,697.323 1506.2,700.235C1506.2,702.848 1506.95,704.995 1508.44,706.675C1509.93,708.355 1511.86,709.195 1514.23,709.195Z" style="fill-rule:nonzero;"/>
            <path d="M1543.05,660.475L1551.74,660.475L1551.74,668.875L1552.15,668.875C1553.09,665.963 1554.72,663.555 1557.04,661.651C1559.36,659.747 1561.81,658.795 1564.41,658.795C1566.45,658.795 1568.16,659.168 1569.54,659.915L1569.54,672.683C1567.11,671.488 1564.93,670.891 1563,670.891C1560.9,670.891 1559.04,671.638 1557.41,673.131C1555.78,674.624 1554.5,676.622 1553.56,679.123C1552.62,681.624 1552.15,684.368 1552.15,687.355L1552.15,717.595L1543.05,717.595L1543.05,660.475Z" style="fill-rule:nonzero;"/>
            <path d="M1591.9,719.387C1587.7,719.387 1583.93,718.08 1580.6,715.467C1577.26,712.854 1574.66,709.251 1572.81,704.659C1570.96,700.067 1570.04,694.859 1570.04,689.035C1570.04,683.211 1570.96,678.003 1572.81,673.411C1574.66,668.819 1577.26,665.216 1580.6,662.603C1583.93,659.99 1587.7,658.683 1591.9,658.683C1596.53,658.683 1600.48,660.102 1603.74,662.939C1606.99,665.776 1609.31,669.622 1610.69,674.475L1602.33,679.179C1600.45,673.131 1596.89,670.107 1591.65,670.107C1589.39,670.107 1587.3,670.891 1585.4,672.459C1583.49,674.027 1581.98,676.248 1580.84,679.123C1579.71,681.998 1579.15,685.302 1579.15,689.035C1579.15,692.768 1579.71,696.091 1580.84,699.003C1581.98,701.915 1583.49,704.155 1585.4,705.723C1587.3,707.291 1589.39,708.075 1591.65,708.075C1594.3,708.075 1596.58,707.272 1598.48,705.667C1600.38,704.062 1601.83,701.766 1602.83,698.779L1611.02,703.595C1609.42,708.448 1606.99,712.294 1603.74,715.131C1600.48,717.968 1596.53,719.387 1591.9,719.387Z" style="fill-rule:nonzero;"/>
            <path d="M1617.15,637.403L1626.26,637.403L1626.26,659.243L1625.85,667.979L1626.26,667.979C1627.47,665.291 1629.28,663.07 1631.68,661.315C1634.08,659.56 1636.66,658.683 1639.42,658.683C1644.56,658.683 1648.48,660.718 1651.18,664.787C1653.89,668.856 1655.24,674.4 1655.24,681.419L1655.24,717.595L1646.13,717.595L1646.13,683.099C1646.13,678.768 1645.29,675.52 1643.61,673.355C1641.92,671.19 1639.73,670.107 1637.02,670.107C1634.98,670.107 1633.14,670.891 1631.52,672.459C1629.89,674.027 1628.61,676.099 1627.67,678.675C1626.73,681.251 1626.26,683.995 1626.26,686.907L1626.26,717.595L1617.15,717.595L1617.15,637.403Z" style="fill-rule:nonzero;"/>
            <path d="M1701.19,719.387C1697,719.387 1693.23,718.08 1689.89,715.467C1686.55,712.854 1683.95,709.251 1682.11,704.659C1680.26,700.067 1679.33,694.859 1679.33,689.035C1679.33,683.211 1680.26,678.003 1682.11,673.411C1683.95,668.819 1686.55,665.216 1689.89,662.603C1693.23,659.99 1697,658.683 1701.19,658.683C1705.83,658.683 1709.78,660.102 1713.03,662.939C1716.29,665.776 1718.61,669.622 1719.99,674.475L1711.62,679.179C1709.75,673.131 1706.19,670.107 1700.94,670.107C1698.68,670.107 1696.6,670.891 1694.69,672.459C1692.79,674.027 1691.27,676.248 1690.14,679.123C1689.01,681.998 1688.44,685.302 1688.44,689.035C1688.44,692.768 1689.01,696.091 1690.14,699.003C1691.27,701.915 1692.79,704.155 1694.69,705.723C1696.6,707.291 1698.68,708.075 1700.94,708.075C1703.59,708.075 1705.87,707.272 1707.77,705.667C1709.68,704.062 1711.13,701.766 1712.12,698.779L1720.32,703.595C1718.72,708.448 1716.29,712.294 1713.03,715.131C1709.78,717.968 1705.83,719.387 1701.19,719.387Z" style="fill-rule:nonzero;"/>
            <path d="M1745.82,719.387C1741.57,719.387 1737.76,718.062 1734.39,715.411C1731.03,712.76 1728.4,709.12 1726.53,704.491C1724.65,699.862 1723.71,694.71 1723.71,689.035C1723.71,683.36 1724.65,678.208 1726.53,673.579C1728.4,668.95 1731.03,665.31 1734.39,662.659C1737.76,660.008 1741.57,658.683 1745.82,658.683C1750.07,658.683 1753.88,660.027 1757.25,662.715C1760.61,665.403 1763.24,669.062 1765.11,673.691C1766.99,678.32 1767.93,683.435 1767.93,689.035C1767.93,694.71 1766.99,699.862 1765.11,704.491C1763.24,709.12 1760.61,712.76 1757.25,715.411C1753.88,718.062 1750.07,719.387 1745.82,719.387ZM1745.82,708.075C1748.14,708.075 1750.29,707.31 1752.28,705.779C1754.27,704.248 1755.85,702.046 1757.04,699.171C1758.23,696.296 1758.82,692.918 1758.82,689.035C1758.82,685.152 1758.23,681.792 1757.04,678.955C1755.85,676.118 1754.27,673.934 1752.28,672.403C1750.29,670.872 1748.14,670.107 1745.82,670.107C1743.5,670.107 1741.35,670.872 1739.36,672.403C1737.37,673.934 1735.79,676.118 1734.6,678.955C1733.41,681.792 1732.82,685.152 1732.82,689.035C1732.82,692.918 1733.41,696.296 1734.6,699.171C1735.79,702.046 1737.37,704.248 1739.36,705.779C1741.35,707.31 1743.5,708.075 1745.82,708.075Z" style="fill-rule:nonzero;"/>
            <path d="M1792.68,719.387C1788.87,719.387 1785.42,718.08 1782.33,715.467C1779.24,712.854 1776.8,709.251 1775.01,704.659C1773.21,700.067 1772.32,694.859 1772.32,689.035C1772.32,683.211 1773.21,678.003 1775.01,673.411C1776.8,668.819 1779.24,665.216 1782.33,662.603C1785.42,659.99 1788.87,658.683 1792.68,658.683C1795.66,658.683 1798.34,659.579 1800.72,661.371C1803.09,663.163 1804.88,665.366 1806.1,667.979L1806.51,667.979L1806.1,659.915L1806.1,637.403L1815.2,637.403L1815.2,717.595L1806.51,717.595L1806.51,710.203L1806.1,710.203C1804.88,712.742 1803.09,714.907 1800.72,716.699C1798.34,718.491 1795.66,719.387 1792.68,719.387ZM1794.01,708.075C1796.22,708.075 1798.27,707.291 1800.18,705.723C1802.08,704.155 1803.61,701.915 1804.77,699.003C1805.93,696.091 1806.51,692.768 1806.51,689.035C1806.51,685.302 1805.93,681.998 1804.77,679.123C1803.61,676.248 1802.08,674.027 1800.18,672.459C1798.27,670.891 1796.22,670.107 1794.01,670.107C1791.8,670.107 1789.73,670.891 1787.8,672.459C1785.87,674.027 1784.32,676.248 1783.16,679.123C1782,681.998 1781.42,685.302 1781.42,689.035C1781.42,692.768 1782,696.091 1783.16,699.003C1784.32,701.915 1785.87,704.155 1787.8,705.723C1789.73,707.291 1791.8,708.075 1794.01,708.075Z" style="fill-rule:nonzero;"/>
            <path d="M1843.03,719.387C1838.88,719.387 1835.17,718.08 1831.89,715.467C1828.6,712.854 1826.04,709.251 1824.19,704.659C1822.34,700.067 1821.41,694.896 1821.41,689.147C1821.41,683.696 1822.31,678.638 1824.11,673.971C1825.9,669.304 1828.4,665.59 1831.6,662.827C1834.8,660.064 1838.44,658.683 1842.53,658.683C1846.78,658.683 1850.46,659.952 1853.58,662.491C1856.7,665.03 1859.07,668.502 1860.7,672.907C1862.33,677.312 1863.14,682.278 1863.14,687.803C1863.14,688.848 1863.06,690.155 1862.9,691.723L1830.52,691.723C1830.85,697.024 1832.25,701.112 1834.7,703.987C1837.16,706.862 1840.02,708.299 1843.27,708.299C1845.87,708.299 1848.12,707.496 1850.02,705.891C1851.92,704.286 1853.46,702.102 1854.62,699.339L1862.32,704.267C1860.33,708.971 1857.74,712.667 1854.53,715.355C1851.33,718.043 1847.5,719.387 1843.03,719.387ZM1853.87,682.315C1853.76,680.299 1853.29,678.302 1852.46,676.323C1851.64,674.344 1850.38,672.683 1848.7,671.339C1847.01,669.995 1844.96,669.323 1842.53,669.323C1839.6,669.323 1837.13,670.499 1835.12,672.851C1833.1,675.203 1831.71,678.358 1830.94,682.315L1853.87,682.315Z" style="fill-rule:nonzero;"/>
        </g>
    </g>
</svg>
