<?xml version="1.0" encoding="UTF-8" standalone="no"?>
<!DOCTYPE svg PUBLIC "-//W3C//DTD SVG 1.1//EN" "http://www.w3.org/Graphics/SVG/1.1/DTD/svg11.dtd">
<svg width="100%" height="100%" viewBox="0 0 2562 822" version="1.1" xmlns="http://www.w3.org/2000/svg" xmlns:xlink="http://www.w3.org/1999/xlink" xml:space="preserve" xmlns:serif="http://www.serif.com/" style="fill-rule:evenodd;clip-rule:evenodd;stroke-linejoin:round;stroke-miterlimit:2;">
    <g id="Layer-1" serif:id="Layer 1">
        <g transform="matrix(1,0,0,1,-27,61)">
            <text x="59.866px" y="499.766px" style="font-family:'GoogleSans-Medium', 'Google Sans';font-weight:500;font-size:577px;fill:rgb(66,133,244);">&amp;</text>
            <text x="421.068px" y="499.766px" style="font-family:'GoogleSans-Medium', 'Google Sans';font-weight:500;font-size:577px;fill:rgb(219,68,55);">u</text>
            <text x="741.88px" y="499.766px" style="font-family:'GoogleSans-Medium', 'Google Sans';font-weight:500;font-size:577px;fill:rgb(244,180,0);">d</text>
            <text x="1086.35px" y="499.766px" style="font-family:'GoogleSans-Medium', 'Google Sans';font-weight:500;font-size:577px;fill:rgb(66,133,244);">m</text>
            <text x="1591.22px" y="499.766px" style="font-family:'GoogleSans-Medium', 'Google Sans';font-weight:500;font-size:577px;fill:rgb(244,180,0);">=</text>
            <text x="1916.65px" y="499.766px" style="font-family:'GoogleSans-Medium', 'Google Sans';font-weight:500;font-size:577px;fill:rgb(15,157,88);">5</text>
            <g transform="matrix(577,0,0,577,2565.2,499.766)">
            </g>
            <text x="2236.89px" y="499.766px" style="font-family:'GoogleSans-Medium', 'Google Sans';font-weight:500;font-size:577px;fill:rgb(219,68,55);">6</text>
        </g>
        <g transform="matrix(1,0,0,1,-317.897,-1)">
            <g transform="matrix(112,0,0,112,2412.18,717.595)">
            </g>
            <text x="783.929px" y="717.595px" style="font-family:'GoogleSans-Medium', 'Google Sans';font-weight:500;font-size:112px;">t<tspan x="826.153px 889.433px 951.705px 975.673px 1038.62px 1063.7px 1105.37px 1146.36px 1205.38px 1254.11px 1352.22px 1378.54px 1441.48px 1467.8px 1565.35px 1624.38px 1648.9px 1675.23px 1727.31px 1768.97px 1792.94px 1846.14px 1908.97px 1967.99px 2007.64px 2068.23px 2131.51px 2155.48px 2215.51px 2281.26px 2347.67px " y="717.595px 717.595px 717.595px 717.595px 717.595px 717.595px 717.595px 717.595px 717.595px 717.595px 717.595px 717.595px 717.595px 717.595px 717.595px 717.595px 717.595px 717.595px 717.595px 717.595px 717.595px 717.595px 717.595px 717.595px 717.595px 717.595px 717.595px 717.595px 717.595px 717.595px 717.595px ">he ultra-minimalist search code</tspan></text>
        </g>
    </g>
</svg>
